<svg width="19" height="20" viewBox="0 0 19 20" fill="none" xmlns="http://www.w3.org/2000/svg">
<path d="M18.03 14.0625V0.9375C18.03 0.417969 17.6121 0 17.0925 0H4.28003C2.20972 0 0.530029 1.67969 0.530029 3.75V16.25C0.530029 18.3203 2.20972 20 4.28003 20H17.0925C17.6121 20 18.03 19.582 18.03 19.0625V18.4375C18.03 18.1445 17.8933 17.8789 17.6824 17.707C17.5183 17.1055 17.5183 15.3906 17.6824 14.7891C17.8933 14.6211 18.03 14.3555 18.03 14.0625ZM5.53003 5.23438C5.53003 5.10547 5.6355 5 5.7644 5H14.0457C14.1746 5 14.28 5.10547 14.28 5.23438V6.01562C14.28 6.14453 14.1746 6.25 14.0457 6.25H5.7644C5.6355 6.25 5.53003 6.14453 5.53003 6.01562V5.23438ZM5.53003 7.73438C5.53003 7.60547 5.6355 7.5 5.7644 7.5H14.0457C14.1746 7.5 14.28 7.60547 14.28 7.73438V8.51562C14.28 8.64453 14.1746 8.75 14.0457 8.75H5.7644C5.6355 8.75 5.53003 8.64453 5.53003 8.51562V7.73438ZM15.4285 17.5H4.28003C3.58862 17.5 3.03003 16.9414 3.03003 16.25C3.03003 15.5625 3.59253 15 4.28003 15H15.4285C15.3542 15.668 15.3542 16.832 15.4285 17.5Z" fill="white"/>
</svg>
