<svg width="14" height="12" viewBox="0 0 14 12" fill="none" xmlns="http://www.w3.org/2000/svg">
<path opacity="0.5" d="M1 6.46531H10.2994M3.42985 3.61549L3.99982 1.51561C4.11981 1.06564 4.56978 0.825656 5.01975 0.945648L12.3993 2.92553C12.8493 3.04552 13.0893 3.49549 12.9693 3.94547L11.7693 8.44519M3.75983 2.32556L12.7593 4.72542M10.2994 5.62536V10.2751C10.2994 10.7251 9.93945 11.085 9.48948 11.085H1.80995C1.35998 11.085 1 10.7251 1 10.2751V5.62536C1 5.17539 1.35998 4.81541 1.80995 4.81541H9.48948C9.93945 4.81541 10.2994 5.17539 10.2994 5.62536ZM7.14962 9.61512H8.94951C9.03951 9.61512 9.0995 9.67511 9.0995 9.76511C9.0995 9.8551 9.03951 9.9151 8.94951 9.9151H7.14962C7.05963 9.9151 6.99963 9.8551 6.99963 9.76511C6.99963 9.67511 7.05963 9.61512 7.14962 9.61512Z" stroke="black" stroke-miterlimit="10" stroke-linecap="round" stroke-linejoin="round"/>
</svg>
