<svg width="25" height="24" viewBox="0 0 25 24" fill="none" xmlns="http://www.w3.org/2000/svg">
<path fill-rule="evenodd" clip-rule="evenodd" d="M3.75 8.75C3.75 5.29822 6.54822 2.5 10 2.5H15C18.4517 2.5 21.25 5.29822 21.25 8.75V9.79775C19.9321 8.24935 17.5325 8.25836 16.2273 9.82475C15.9139 10.2009 15.3361 10.2009 15.0227 9.82475C13.7099 8.2493 11.2901 8.2493 9.97723 9.82475C9.66381 10.2009 9.08619 10.2009 8.77277 9.82475C7.46744 8.25836 5.06794 8.24935 3.75 9.79775V8.75ZM23.75 8.75V9.375C24.0699 9.375 24.3898 9.497 24.6339 9.74113C25.122 10.2293 25.122 11.0208 24.6339 11.5089L24.4057 11.737C23.943 12.1999 23.382 12.4987 22.7925 12.6369C24.0706 13.0289 25 14.2184 25 15.625C25 16.7009 24.4563 17.6499 23.6286 18.212C23.7064 18.3749 23.75 18.5574 23.75 18.75V19.375C23.75 21.7912 21.7912 23.75 19.375 23.75H5.625C3.20875 23.75 1.25 21.7912 1.25 19.375V18.75C1.25 18.5574 1.29358 18.3749 1.3714 18.212C0.543725 17.6499 0 16.7009 0 15.625C0 14.2184 0.92935 13.0289 2.20753 12.6369C1.61796 12.4987 1.05705 12.1999 0.594212 11.737L0.366113 11.5089C-0.122037 11.0208 -0.122037 10.2293 0.366113 9.74113C0.6102 9.497 0.9301 9.375 1.25 9.375V8.75C1.25 3.91751 5.16751 0 10 0H15C19.8325 0 23.75 3.91751 23.75 8.75ZM4.19958 12.5H8.54074C7.90566 12.3344 7.31129 11.9761 6.85223 11.4252C6.53881 11.0491 5.96119 11.0491 5.64778 11.4252L5.57631 11.511C5.19361 11.9703 4.71708 12.3007 4.19958 12.5ZM10.2093 12.5H14.7907C14.1556 12.3344 13.5612 11.9761 13.1023 11.4252C12.7889 11.0491 12.2111 11.0491 11.8977 11.4252C11.4388 11.9761 10.8444 12.3344 10.2093 12.5ZM16.4593 12.5H20.8004C20.2829 12.3007 19.8064 11.9703 19.4236 11.511L19.3523 11.4252C19.0389 11.0491 18.4611 11.0491 18.1477 11.4252C17.6887 11.9761 17.0944 12.3344 16.4593 12.5ZM3.75 18.75V19.375C3.75 20.4105 4.58946 21.25 5.625 21.25H19.375C20.4105 21.25 21.25 20.4105 21.25 19.375V18.75H3.75ZM2.5 15.625C2.5 15.2799 2.77982 15 3.125 15H21.875C22.2201 15 22.5 15.2799 22.5 15.625C22.5 15.9701 22.2201 16.25 21.875 16.25H3.125C2.77982 16.25 2.5 15.9701 2.5 15.625Z" fill="black"/>
</svg>
