<svg width="25" height="25" viewBox="0 0 25 25" fill="none" xmlns="http://www.w3.org/2000/svg">
<path d="M12.5176 0.000105877C12.4327 0.0014042 12.3492 0.0225329 12.2739 0.0618054L0.836135 6.05304C0.748095 6.09927 0.67439 6.16871 0.623009 6.25385C0.571628 6.33898 0.544532 6.43656 0.544658 6.536V8.16997C0.544672 8.31442 0.60206 8.45295 0.7042 8.55509C0.80634 8.65723 0.944868 8.71461 1.08932 8.71463H1.63397V9.47736C1.63397 10.1374 2.10472 10.6999 2.72329 10.8507V20.7035H1.14357L1.23399 20.7109C0.56296 20.598 0 21.1735 0 21.8034V23.3002C0 23.943 0.50874 24.5097 1.14357 24.5097H23.8564C24.4913 24.5097 25 23.9854 25 23.3555V21.8587C25 21.2288 24.4913 20.7035 23.8564 20.7035H22.331V10.8507C22.9495 10.6999 23.4203 10.1374 23.4203 9.47736V8.71463H23.9649C24.1094 8.71461 24.2479 8.65723 24.3501 8.55509C24.4522 8.45295 24.5096 8.31442 24.5096 8.16997V6.536C24.5097 6.43656 24.4826 6.33898 24.4312 6.25385C24.3799 6.16871 24.3062 6.09927 24.2181 6.05304L12.7803 0.0618054C12.6993 0.019522 12.6089 -0.0016958 12.5176 0.000105877ZM12.5271 1.16069L23.4203 6.86577V7.62531H22.9671C22.9083 7.61559 22.8483 7.61559 22.7895 7.62531H17.5131C17.4825 7.6202 17.4515 7.61771 17.4205 7.61787C17.3941 7.61844 17.3678 7.62093 17.3418 7.62531H15.3419C15.2831 7.61559 15.2231 7.61559 15.1642 7.62531H9.88788C9.8573 7.6202 9.82633 7.61771 9.79533 7.61787C9.76894 7.61844 9.74263 7.62093 9.71661 7.62531H7.71669C7.65787 7.61559 7.59786 7.61559 7.53904 7.62531H2.26267C2.23209 7.6202 2.20113 7.61771 2.17012 7.61787C2.14373 7.61844 2.11743 7.62093 2.0914 7.62531H1.63397V6.86577L12.5271 1.16069ZM2.72329 8.71463H7.08055V9.47736C7.08055 9.68514 6.96174 9.80394 6.75397 9.80394H3.04987C2.84209 9.80394 2.72329 9.68514 2.72329 9.47736V8.71463ZM8.16986 8.71463H9.25918V9.47736C9.25918 10.1374 9.72992 10.6999 10.3485 10.8507V20.7035H7.08055V10.8507C7.69912 10.6999 8.16986 10.1374 8.16986 9.47736V8.71463ZM10.3485 8.71463H14.7058V9.47736C14.7058 9.68514 14.587 9.80394 14.3792 9.80394H10.6751C10.4673 9.80394 10.3485 9.68514 10.3485 9.47736V8.71463ZM15.7951 8.71463H16.8844V9.47736C16.8844 10.1374 17.3551 10.6999 17.9737 10.8507V20.7035H14.7058V10.8507C15.3243 10.6999 15.7951 10.1374 15.7951 9.47736V8.71463ZM17.9737 8.71463H22.331V9.47736C22.331 9.68514 22.2122 9.80394 22.0044 9.80394H18.3003C18.0925 9.80394 17.9737 9.68514 17.9737 9.47736V8.71463ZM3.8126 10.8933H5.99123V20.6971H3.8126V10.8933ZM11.4378 10.8933H13.6164V20.6971H11.4378V10.8933ZM19.063 10.8933H21.2416V20.6971H19.063V10.8933ZM1.08081 21.7885C1.10163 21.7912 1.12258 21.7926 1.14357 21.7928H23.8564C23.8752 21.7928 23.9107 21.8231 23.9107 21.8587V23.3555C23.9107 23.3911 23.8752 23.4204 23.8564 23.4204H1.14357C1.12481 23.4204 1.08932 23.433 1.08932 23.3002V21.8034C1.08932 21.7908 1.0846 21.7906 1.08081 21.7885Z" fill="black"/>
</svg>
