<svg width="25" height="22" viewBox="0 0 25 22" fill="none" xmlns="http://www.w3.org/2000/svg">
<path d="M22.9754 5.21411H2.02495C0.906494 5.21411 0 6.121 0 7.23911V10.0124L10.3275 12.1905V10.8096H14.6132V12.1905L25 9.99854V7.23911C25 6.121 24.0935 5.21411 22.9754 5.21411Z" fill="black"/>
<path d="M14.6132 16.5239H10.3275V13.7399L0.714502 11.8307V19.9751C0.714502 21.0932 1.62061 22 2.73867 22H22.2613C23.3794 22 24.2859 21.0932 24.2859 19.9751V11.8165L14.6132 13.7398V16.5239Z" fill="black"/>
<path d="M13.5417 11.8811H11.399V15.452H13.5417V11.8811Z" fill="black"/>
<path d="M9.46221 2.02573C9.4626 1.94258 9.49336 1.87647 9.54766 1.82026C9.60268 1.76641 9.66924 1.73638 9.75156 1.7356H15.2485C15.3308 1.73638 15.3978 1.76641 15.4528 1.82026C15.5067 1.87647 15.5371 1.94258 15.5375 2.02573V3.47236H17.2731V2.02573C17.2735 1.4686 17.0453 0.957618 16.6802 0.593653C16.3166 0.228174 15.8045 -0.000390125 15.2485 4.99897e-07H9.75156C9.19522 -0.000390125 8.68345 0.228174 8.31992 0.593653C7.95518 0.957618 7.72627 1.46856 7.72739 2.02573V3.47236H9.46221V2.02573Z" fill="black"/>
</svg>
