<svg width="25" height="24" viewBox="0 0 25 24" fill="none" xmlns="http://www.w3.org/2000/svg">
<path d="M1.57562 8.19327C1.57559 6.57478 2.05493 4.99253 2.95316 3.64616C3.85138 2.29979 5.12825 1.24961 6.62267 0.628119C8.11709 0.00662975 9.7621 -0.158325 11.3502 0.154067C12.9382 0.466458 14.3982 1.2422 15.5459 2.38342C16.4488 1.93773 17.4575 1.75034 18.4603 1.84196C19.4631 1.93357 20.4211 2.30062 21.2283 2.90254C22.0356 3.50447 22.6608 4.31785 23.0348 5.25282C23.4088 6.18778 23.517 7.20793 23.3476 8.20056C23.5967 8.22368 23.8384 8.2979 24.0576 8.4186C24.2767 8.53929 24.4687 8.70386 24.6214 8.90204C24.7741 9.10022 24.8844 9.32776 24.9453 9.57045C25.0062 9.81313 25.0164 10.0658 24.9753 10.3126C24.1523 15.2631 22.1168 18.3965 18.8723 19.7147V20.9382C18.8723 21.6625 18.5845 22.3572 18.0724 22.8693C17.5602 23.3815 16.8655 23.6692 16.1412 23.6692H8.85842C8.1341 23.6692 7.43945 23.3815 6.92728 22.8693C6.4151 22.3572 6.12737 21.6625 6.12737 20.9382V19.7147C2.88288 18.3965 0.847337 15.2631 0.0243804 10.3126C-0.0153368 10.0723 -0.0064559 9.82654 0.0504976 9.58978C0.107451 9.35302 0.21132 9.13009 0.355957 8.93419C0.500593 8.73828 0.683059 8.57338 0.892555 8.44925C1.10205 8.32511 1.33432 8.24426 1.57562 8.21148V8.19327ZM3.39632 8.19327H5.21702C5.21702 6.98607 5.69658 5.82832 6.5502 4.9747C7.40382 4.12108 8.56157 3.64152 9.76877 3.64152C10.976 3.64152 12.1337 4.12108 12.9873 4.9747C13.841 5.82832 14.3205 6.98607 14.3205 8.19327H16.1412C16.1412 6.50319 15.4698 4.88234 14.2748 3.68727C13.0797 2.4922 11.4589 1.82082 9.76877 1.82082C8.07869 1.82082 6.45783 2.4922 5.26277 3.68727C4.0677 4.88234 3.39632 6.50319 3.39632 8.19327ZM7.03772 8.19327H12.4998C12.4998 7.46895 12.2121 6.7743 11.6999 6.26213C11.1877 5.74996 10.4931 5.46222 9.76877 5.46222C9.04445 5.46222 8.3498 5.74996 7.83763 6.26213C7.32545 6.7743 7.03772 7.46895 7.03772 8.19327ZM19.5387 8.19327H21.4886C21.6261 7.65521 21.6389 7.09286 21.5261 6.54909C21.4133 6.00532 21.1779 5.49447 20.8377 5.05548C20.4976 4.61648 20.0617 4.26092 19.5634 4.01588C19.065 3.77085 18.5173 3.64281 17.9619 3.64152C17.525 3.64152 17.1098 3.71799 16.7238 3.85819C17.0461 4.37526 17.3119 4.9324 17.5159 5.51684C17.8626 5.43083 18.227 5.44854 18.5638 5.56778C18.9006 5.68701 19.195 5.90251 19.4105 6.18755C19.6259 6.47259 19.7529 6.81461 19.7757 7.17117C19.7984 7.52773 19.716 7.88313 19.5387 8.19327ZM17.0516 20.0278H7.94807V20.9382C7.94807 21.1796 8.04398 21.4112 8.21471 21.5819C8.38543 21.7526 8.61698 21.8485 8.85842 21.8485H16.1412C16.3827 21.8485 16.6142 21.7526 16.7849 21.5819C16.9557 21.4112 17.0516 21.1796 17.0516 20.9382V20.0278ZM7.30718 18.2071H17.6925C20.5801 17.2786 22.4081 14.6531 23.1801 10.014H1.81959C2.59157 14.6531 4.41955 17.2786 7.30718 18.2071Z" fill="black"/>
</svg>
