<svg width="25" height="20" viewBox="0 0 25 20" fill="none" xmlns="http://www.w3.org/2000/svg">
<path d="M10.5263 0C3.94731 0 0 5.27749 0 7.9165C0 10.5555 1.3156 12.5346 3.94731 12.5346C6.57903 12.5346 7.89515 13.194 7.89515 15.1731C7.89515 17.8116 9.86854 19.7907 12.5003 19.7907C21.0532 19.7907 25 15.1731 25 10.5555C24.9995 2.63901 18.4194 0 10.5263 0ZM8.88159 2.63901C9.7899 2.63901 10.5263 3.37753 10.5263 4.28793C10.5263 5.19937 9.7899 5.93738 8.88159 5.93738C7.97327 5.93738 7.23683 5.19885 7.23683 4.28793C7.23683 3.37753 7.97327 2.63901 8.88159 2.63901ZM14.144 2.63901C15.0523 2.63901 15.7887 3.37753 15.7887 4.28793C15.7887 5.19937 15.0523 5.93738 14.144 5.93738C13.2362 5.93738 12.4997 5.19885 12.4997 4.28793C12.4997 3.37753 13.2362 2.63901 14.144 2.63901ZM19.4074 5.27749C20.3162 5.27749 21.0527 6.0155 21.0527 6.92694C21.0527 7.83838 20.3162 8.57586 19.4074 8.57586C18.4991 8.57586 17.7632 7.83786 17.7632 6.92694C17.7626 6.01602 18.4991 5.27749 19.4074 5.27749ZM4.27647 6.59726C5.18479 6.59726 5.92071 7.33526 5.92071 8.24566C5.92071 9.1571 5.18427 9.89511 4.27647 9.89511C3.36868 9.89511 2.63172 9.15658 2.63172 8.24566C2.63172 7.33526 3.36816 6.59726 4.27647 6.59726ZM12.4997 13.194C13.5898 13.194 14.4731 14.0794 14.4731 15.1736C14.4731 16.2663 13.5898 17.1522 12.4997 17.1522C11.4097 17.1522 10.5263 16.2663 10.5263 15.1736C10.5263 14.0794 11.4097 13.194 12.4997 13.194Z" fill="black"/>
</svg>
