<svg width="25" height="20" viewBox="0 0 25 20" fill="none" xmlns="http://www.w3.org/2000/svg">
<path fill-rule="evenodd" clip-rule="evenodd" d="M10.8336 1.47056L10.2062 1.0101C9.31076 0.352917 8.24078 0 7.14379 0H6.3782C5.87296 0 5.3626 0.0330428 4.88643 0.208172C1.90806 1.30363 -0.140641 5.30839 0.00754614 14.3923C0.0373961 16.2225 0.45037 18.2454 2.04278 19.0351C2.539 19.2812 3.12083 19.4444 3.78338 19.4444C4.5784 19.4444 5.20974 19.2094 5.69703 18.8782C6.208 18.5309 6.6579 18.0796 7.10764 17.6283C7.66337 17.0707 8.21887 16.5134 8.88905 16.153C9.61897 15.7605 10.4292 15.5556 11.2514 15.5556H13.7486C14.5707 15.5556 15.381 15.7605 16.111 16.153C16.7811 16.5134 17.3366 17.0707 17.8923 17.6283C18.3421 18.0796 18.792 18.5309 19.303 18.8782C19.7902 19.2094 20.4216 19.4444 21.2166 19.4444C21.8791 19.4444 22.461 19.2812 22.9572 19.0351C24.5496 18.2454 24.9626 16.2225 24.9925 14.3923C25.1406 5.30837 23.0918 1.30363 20.1135 0.208172C19.6373 0.0330428 19.127 0 18.6217 0H17.8561C16.7592 0 15.6892 0.352917 14.7939 1.0101L14.1665 1.47053C13.6792 1.82815 13.097 2.0202 12.5 2.0202C11.9031 2.0202 11.3209 1.82815 10.8336 1.47056ZM18.4375 5.18518C18.9552 5.18518 19.375 5.62047 19.375 6.15741C19.375 6.69433 18.9552 7.12963 18.4375 7.12963C17.9197 7.12963 17.5 6.69433 17.5 6.15741C17.5 5.62047 17.9197 5.18518 18.4375 5.18518ZM6.87499 5.50926C7.39275 5.50926 7.81249 5.94454 7.81249 6.48148V7.4537H8.74998C9.26775 7.4537 9.68748 7.889 9.68748 8.42593C9.68748 8.96285 9.26775 9.39815 8.74998 9.39815H7.81249V10.3704C7.81249 10.9073 7.39275 11.3426 6.87499 11.3426C6.35722 11.3426 5.93749 10.9073 5.93749 10.3704V9.39815H4.99999C4.48223 9.39815 4.06249 8.96285 4.06249 8.42593C4.06249 7.889 4.48223 7.4537 4.99999 7.4537H5.93749V6.48148C5.93749 5.94454 6.35722 5.50926 6.87499 5.50926ZM21.25 8.10185C21.25 8.63878 20.8302 9.07407 20.3125 9.07407C19.7947 9.07407 19.375 8.63878 19.375 8.10185C19.375 7.56493 19.7947 7.12963 20.3125 7.12963C20.8302 7.12963 21.25 7.56493 21.25 8.10185ZM16.5625 9.07407C17.0802 9.07407 17.5 8.63878 17.5 8.10185C17.5 7.56493 17.0802 7.12963 16.5625 7.12963C16.0447 7.12963 15.625 7.56493 15.625 8.10185C15.625 8.63878 16.0447 9.07407 16.5625 9.07407ZM19.375 10.0463C19.375 9.50937 18.9552 9.07407 18.4375 9.07407C17.9197 9.07407 17.5 9.50937 17.5 10.0463C17.5 10.5832 17.9197 11.0185 18.4375 11.0185C18.9552 11.0185 19.375 10.5832 19.375 10.0463Z" fill="black"/>
</svg>
