<svg width="25" height="17" viewBox="0 0 25 17" fill="none" xmlns="http://www.w3.org/2000/svg">
<path d="M6.17248 6.26881C2.36996 6.26881 0.820881 7.73462 0.331656 8.99712C0.142094 9.4862 -0.0178389 10.3888 0.00160552 10.9382C0.0207133 11.4772 0.205477 13.1364 1.2591 14.2738C2.34033 15.4409 4.00792 16.0326 6.21558 16.0326H24.1357C24.613 16.0326 25 15.6426 25 15.1617V0.871657C25 0.58886 24.863 0.323791 24.6338 0.160593C24.4046 -0.00252039 24.1104 -0.0434048 23.8456 0.051172C23.8272 0.0577033 21.9737 0.708798 19.4314 0.708798C17.9305 0.708798 16.4897 0.485037 15.149 0.0437075C14.8737 -0.0467978 14.5719 0.00460465 14.3448 0.185361C14.1177 0.366032 13.9952 0.646539 14.0187 0.93714C14.0236 1.00932 14.1237 2.72163 12.7764 4.17574C11.4892 5.56512 9.1729 6.26872 6.17248 6.26881C6.1729 6.26881 6.17206 6.26881 6.17248 6.26881ZM23.2715 11.6531H6.29554V8.01148C6.3016 8.01148 6.30775 8.01157 6.31381 8.01157C6.31423 8.01157 6.31465 8.01157 6.31507 8.01157C6.49487 8.01157 6.67164 8.0086 6.84664 8.00393L7.17921 8.96463C7.30362 9.32393 7.63788 9.54897 7.99529 9.54897C8.08965 9.54897 8.18578 9.53319 8.27997 9.50011C8.73073 9.34166 8.96852 8.84503 8.81137 8.39081L8.62896 7.86389C8.81305 7.83895 8.99386 7.81079 9.17139 7.77949L9.77753 8.71746C9.94319 8.97379 10.22 9.11324 10.5026 9.11324C10.6642 9.11324 10.8279 9.0676 10.9734 8.97201C11.3734 8.70957 11.4865 8.17002 11.226 7.76686L10.9405 7.32502C11.1067 7.26683 11.2689 7.20482 11.4273 7.13926L12.108 7.89748C12.2787 8.08748 12.5135 8.1841 12.7492 8.1841C12.9561 8.1841 13.1635 8.10979 13.3289 7.95898C13.6829 7.63631 13.7102 7.08556 13.3899 6.7288L12.99 6.28331C13.1194 6.19128 13.245 6.0956 13.3663 5.99628L14.383 6.71845C14.5343 6.82609 14.7082 6.87766 14.8802 6.87766C15.1518 6.87766 15.4191 6.74907 15.5874 6.50843C15.8625 6.11528 15.7691 5.57191 15.379 5.2948L14.5649 4.71656C15.2539 3.74408 15.5473 2.74767 15.6683 2.00285C16.8719 2.30023 18.1333 2.45045 19.4314 2.45045C21.0327 2.45045 22.3804 2.22211 23.2714 2.01565L23.2715 11.6531ZM2.08182 9.21206C2.53174 8.62441 3.38006 8.24381 4.56692 8.08859V11.5073C3.47543 11.3553 2.32602 11.0805 1.69588 10.6553C1.66541 10.3386 1.6777 9.74007 2.08182 9.21206ZM6.21566 14.2907C4.52021 14.2907 3.28368 13.8914 2.54049 13.104C2.4463 13.0042 2.36406 12.9017 2.29134 12.7985C3.99933 13.3254 5.95825 13.3882 6.26246 13.3948C6.26861 13.3949 6.27484 13.395 6.28115 13.395H23.2715V14.2907H6.21566Z" fill="black"/>
<path d="M19.6125 8.73586C21.0185 8.73586 22.1623 7.5833 22.1623 6.16651C22.1623 4.74973 21.0185 3.59716 19.6125 3.59716C18.2066 3.59716 17.0628 4.74973 17.0628 6.16651C17.0628 7.5833 18.2066 8.73586 19.6125 8.73586ZM19.6125 5.33916C20.0653 5.33916 20.4337 5.71034 20.4337 6.1666C20.4337 6.62286 20.0653 6.99404 19.6125 6.99404C19.1598 6.99404 18.7914 6.62286 18.7914 6.1666C18.7914 5.71034 19.1598 5.33916 19.6125 5.33916Z" fill="black"/>
</svg>
