<svg width="24" height="25" viewBox="0 0 24 25" fill="none" xmlns="http://www.w3.org/2000/svg">
<path d="M9.98755 7.92293L9.35942 11.3072C9.35942 11.3072 14.59 11.3072 14.6861 11.41C14.3284 7.40975 9.98755 7.92293 9.98755 7.92293Z" fill="black"/>
<path d="M9.16055 14.3843L8.42002 13.1535L6.50805 13.2388L7.42251 7.91209H6.91011L6.96274 8.07171C6.54155 8.2305 4.18325 8.79388 4.11508 11.2554L6.02959 10.9821L5.6083 14.4696L9.16055 14.3843Z" fill="black"/>
<path d="M9.3561 15.9H6.07426L5.62412 16.5156H10.0344L9.3561 15.9Z" fill="black"/>
<path d="M23.398 11.7343C23.3646 11.377 22.1898 9.33587 21.8889 9.23348C21.588 9.13065 21.9119 7.28475 21.3101 7.07957C20.7074 6.87439 21.3101 5.20271 19.7341 3.85618C18.7253 2.99446 18.7884 1.64377 17.3663 1.43816C15.9433 1.23337 15.9834 0.617795 14.7526 0.617795C13.7216 0.617795 11.7349 -0.30496 11.093 0.105002C10.4515 0.515403 8.19473 0.515402 7.65566 0.925803C7.11655 1.33576 5.6538 1.74617 4.33657 3.07927C1.36269 6.0908 1.78144 8.42318 1.15038 9.54105C0.919327 9.95189 0.588272 11.9006 0.111855 12.9257C-0.364512 13.9517 0.836514 16.0028 0.809366 16.4132C0.783047 16.8236 1.19052 18.4643 1.0016 19.7975C0.813565 21.1314 2.18266 22.1566 3.36743 22.8742C4.08203 24.5161 5.65376 24.0025 5.65376 24.0025L5.34912 24.8977L6.26562 25L6.75166 23.6259L8.22104 22.4219H11.1665L14.6369 17.9093L15.5141 15.4474L14.7493 14.9768C14.7493 14.9768 14.2194 16.8227 13.9941 17.1312C13.7697 17.4383 10.8514 21.3362 10.8514 21.3362L5.52509 21.2338C5.52509 21.2338 3.89648 17.8487 3.629 17.2331C3.36069 16.6188 3.07944 13.0282 3.07944 13.0282L3.38119 11.3093C3.38119 11.3093 3.75107 10.5666 3.39374 9.74627C3.96 5.74602 7.05508 3.5967 10.395 2.97693C10.395 2.97693 19.8424 4.55369 16.2905 22.875C16.2905 22.875 16.069 24.7213 16.9788 24.9261C17.8886 25.1309 18.6943 24.8417 19.2982 24.7213C20.3238 24.5161 20.6986 25.0339 21.1416 24.5211C21.5851 24.0087 23.0795 19.8158 23.2617 18.8454C23.4669 17.7513 23.5798 16.4132 23.6128 15.9C23.6458 15.3872 23.5271 13.1067 23.398 11.7343Z" fill="black"/>
<path d="M8.32344 18.1567L8.73384 17.7464H7.09267L7.29829 18.1567H8.32344Z" fill="black"/>
</svg>
