<svg width="13" height="25" viewBox="0 0 13 25" fill="none" xmlns="http://www.w3.org/2000/svg">
<path d="M2.95081 22.2929C3.08437 22.4936 3.12673 22.4736 3.05119 22.2449L1.1787 16.5759C1.1032 16.3471 0.972655 16.3446 0.887116 16.5693C0.562809 17.4266 0.373382 17.9263 0.262967 18.2184C0.17784 18.444 0.229373 18.7796 0.379042 18.9691C0.798062 19.4989 1.62912 20.5483 2.32616 21.4282C2.55708 21.7185 2.76225 22.0092 2.95081 22.2929Z" fill="black"/>
<path d="M12.1723 18.2184C12.0614 17.9264 11.872 17.4262 11.5473 16.5698C11.4622 16.3442 11.3316 16.3468 11.2557 16.5759L9.38277 22.2458C9.30768 22.4746 9.34959 22.4946 9.4836 22.2939C9.67216 22.0097 9.8782 21.7194 10.1086 21.4283C10.8061 20.5483 11.6372 19.499 12.0566 18.9692C12.2055 18.7797 12.2574 18.4436 12.1723 18.2184Z" fill="black"/>
<path d="M11.3146 3.13144C10.8655 2.20567 10.9012 1.17163 10.9694 0.604676C10.9991 0.365041 10.8533 0.12326 10.6206 0.0608173L10.4526 0.0154007C10.2199 -0.0474523 9.97113 0.0883412 9.87291 0.30876C9.5019 1.14415 8.43208 2.97607 6.17814 2.97607C3.92853 2.97607 2.90453 1.14854 2.55315 0.311819C2.45976 0.0896649 2.21534 -0.0469503 1.98223 0.0154463L1.8133 0.060863C1.58023 0.123305 1.43485 0.365086 1.46411 0.604722C1.53354 1.17168 1.56973 2.20572 1.11972 3.13149C0.458008 4.49376 -0.281348 5.19427 0.107957 8.26841C0.452759 10.9912 1.71288 12.5856 1.31919 14.6991C1.2751 14.9361 1.2808 15.3088 1.35584 15.538L3.8036 22.9494C3.87909 23.1781 4.04364 23.5295 4.18204 23.7268C4.71759 24.4923 5.28194 25 6.21689 25C7.15138 25 7.71486 24.4928 8.25128 23.7286C8.38917 23.5313 8.55464 23.1795 8.62972 22.9507L11.0779 15.538C11.1539 15.3093 11.1587 14.9361 11.1155 14.6991C10.7218 12.5852 11.9815 10.9912 12.3258 8.26845C12.7153 5.19422 11.9759 4.49371 11.3146 3.13144Z" fill="black"/>
</svg>
