<svg width="25" height="22" viewBox="0 0 25 22" fill="none" xmlns="http://www.w3.org/2000/svg">
<path d="M24.9774 8.66318L23.3531 15.2508C22.9019 17.3264 21.3678 18.9507 19.3825 19.6726L15.5021 21.1165C15.1411 21.2067 14.7802 21.1165 14.5094 20.8458L11.7119 17.7776C10.2681 16.2435 9.72664 14.0777 10.1778 12.0021L11.7119 5.41449C11.8022 5.05352 12.1632 4.69255 12.6144 4.69255C16.7655 4.69255 20.7361 5.68521 24.436 7.49004C24.8872 7.851 25.0677 8.30221 24.9774 8.66318ZM13.6973 13.085C13.2461 14.7996 14.329 16.5142 16.0435 16.8751C17.7581 17.3264 19.4727 16.2435 19.8337 14.5289M20.9166 10.1973C20.1946 10.0168 19.4727 10.468 19.2922 11.1899C19.1117 11.9119 19.563 12.6338 20.2849 12.8143C21.0068 12.9948 21.7287 12.5436 21.9092 11.8216C22.0897 11.0997 21.6385 10.3778 20.9166 10.1973ZM14.7802 8.75342C14.0582 8.57294 13.3363 9.02414 13.1558 9.74607C12.9753 10.468 13.4265 11.1899 14.1485 11.3704C14.8704 11.5509 15.5923 11.0997 15.7728 10.3778C15.9533 9.65583 15.5021 8.9339 14.7802 8.75342ZM8.91446 16.7849L7.01939 16.3337C4.94384 15.7923 3.3195 14.2581 2.59756 12.2728L0.0708043 5.05352C-0.109679 4.69255 0.0708042 4.24135 0.43177 3.97062C3.95119 1.71459 7.74133 0.360966 11.8924 0C12.3436 0 12.7046 0.180483 12.7948 0.63169L13.6973 3.15845C13.3363 3.15845 12.9753 3.15845 12.6144 3.15845C11.351 3.15845 10.2681 3.97062 9.99736 5.234L9.00471 9.47535C8.91446 9.47535 8.82422 9.47535 8.73398 9.56559C7.10964 10.107 6.20722 11.9119 6.83891 13.6265L8.28277 13.085C8.19253 14.2581 8.37302 15.5215 8.91446 16.7849ZM6.3877 7.851C6.11698 7.12907 5.39505 6.76811 4.67312 7.03883C3.95119 7.21931 3.49998 8.03149 3.7707 8.75342C4.04143 9.47535 4.76336 9.83632 5.48529 9.56559C6.20722 9.29487 6.56819 8.57294 6.3877 7.851Z" fill="black"/>
</svg>
