<svg width="25" height="21" viewBox="0 0 25 21" fill="none" xmlns="http://www.w3.org/2000/svg">
<path fill-rule="evenodd" clip-rule="evenodd" d="M18.0517 10.6095C18.71 9.95111 19.7776 9.95111 20.436 10.6095L25 15.1736L20.436 19.7376C19.7776 20.396 18.71 20.396 18.0517 19.7376C17.3933 19.0792 17.3933 18.0117 18.0517 17.3533L18.5455 16.8595H2.3843C1.45316 16.8595 0.698347 16.1047 0.698347 15.1736C0.698347 14.2424 1.45316 13.4876 2.3843 13.4876H18.5455L18.0517 12.9938C17.3933 12.3354 17.3933 11.2679 18.0517 10.6095ZM4.56405 0.493799C5.22247 -0.1646 6.28994 -0.1646 6.94836 0.493799C7.60676 1.15221 7.60676 2.21969 6.94836 2.87811L6.45454 3.3719H22.6157C23.5469 3.3719 24.3017 4.12674 24.3017 5.05786C24.3017 5.98899 23.5469 6.74381 22.6157 6.74381H6.45454L6.94836 7.23761C7.60676 7.89602 7.60676 8.9635 6.94836 9.62191C6.28994 10.2803 5.22247 10.2803 4.56405 9.62191L0 5.05786L4.56405 0.493799Z" fill="black"/>
</svg>
