<svg width="25" height="18" viewBox="0 0 25 18" fill="none" xmlns="http://www.w3.org/2000/svg">
<path d="M23.1188 9.14362L24.9827 4.32868C25.0239 4.22111 24.9896 4.09977 24.8988 4.03039C24.8072 3.96017 24.6814 3.95944 24.589 4.02731L19.7504 7.59639C18.709 7.47354 17.5828 4.98557 12.6252 3.75114L14.0741 3.5444C14.3052 3.51158 14.5082 3.37652 14.6287 3.17589C14.7485 2.97598 14.7714 2.73262 14.692 2.51362L13.9634 0.510137C13.8742 0.265213 13.6682 0.0813727 13.4149 0.0210694C13.1616 -0.039234 12.8953 0.0317629 12.7054 0.21028L9.38882 3.33229C4.02304 3.44972 0 7.76876 0 9.14362C0.182326 10.2964 2.38728 12.9462 5.72516 14.234C6.07384 13.7472 6.35534 13.2773 6.58044 12.8294C7.23733 11.5194 7.42195 10.3941 7.42195 9.6197C7.42195 9.30764 7.39143 9.05285 7.35252 8.87429C7.28997 8.57902 7.47767 8.28912 7.77288 8.22653C8.06815 8.16319 8.35805 8.35167 8.42138 8.64616C8.47782 8.91242 8.51371 9.23742 8.51371 9.6197C8.51371 10.5642 8.29017 11.8567 7.55623 13.3193C7.35022 13.7305 7.10149 14.1554 6.80778 14.5896C7.95526 14.9024 9.2103 15.0435 10.5424 14.9169L11.5312 16.8433C11.6311 17.0386 11.8089 17.1821 12.021 17.2385C12.2331 17.2942 12.4589 17.2584 12.6435 17.1378L13.3981 16.6442C13.6064 16.5084 13.7353 16.2818 13.7483 16.0346C13.7597 15.7874 13.6537 15.5486 13.4606 15.393L12.4497 14.5789C17.5569 13.3612 18.6975 10.8153 19.7504 10.6909L24.589 14.26C24.6814 14.3279 24.8072 14.3271 24.8988 14.2577C24.9896 14.1883 25.0239 14.0662 24.9827 13.9594L23.1188 9.14362ZM3.73158 9.50828C3.27914 9.50828 2.91219 9.14055 2.91219 8.68888C2.91219 8.23644 3.27918 7.86949 3.73158 7.86949C4.18398 7.86949 4.55098 8.23649 4.55098 8.68888C4.55098 9.14055 4.18398 9.50828 3.73158 9.50828Z" fill="black"/>
</svg>
