<svg width="25" height="25" viewBox="0 0 25 25" fill="none" xmlns="http://www.w3.org/2000/svg">
<path d="M0 12.5C0 9.6953 0.939626 7.11262 2.50544 5.02373C4.07069 7.11204 5.01002 9.6953 5.01002 12.5C5.01002 15.3045 4.07069 17.8877 2.50544 19.9758C0.939626 17.8877 0 15.3045 0 12.5Z" fill="black"/>
<path d="M12.4997 25C9.44946 25 6.65377 23.8999 4.48225 22.0789C6.58825 19.4506 7.85651 16.1227 7.85651 12.5006C7.85651 8.87802 6.58816 5.55148 4.48109 2.92262C6.65377 1.10121 9.44888 0 12.4997 0C15.2081 0 17.7113 0.875101 19.7598 2.34464C17.9545 4.86227 16.88 7.93509 16.88 11.2619C16.88 15.2773 18.442 18.9249 20.9735 21.664C18.7436 23.7266 15.7714 25 12.4997 25Z" fill="black"/>
<path d="M22.851 19.5003C20.9123 17.2978 19.7269 14.4182 19.7269 11.2607C19.7269 8.66875 20.5194 6.25839 21.8759 4.25928C23.8134 6.46228 25 9.34189 25 12.5C25 15.0924 24.2062 17.5017 22.851 19.5003Z" fill="black"/>
</svg>
