<svg width="25" height="26" viewBox="0 0 25 26" fill="none" xmlns="http://www.w3.org/2000/svg">
<path fill-rule="evenodd" clip-rule="evenodd" d="M22.9046 11.658C22.3653 11.658 21.8262 11.8605 21.4201 12.2666L18.9562 14.7321C18.6834 14.3013 18.2586 13.9655 17.7342 13.8249L11.9191 12.2666C11.4556 12.1424 10.9764 12.1191 10.5117 12.1895C10.0469 12.26 9.59704 12.4241 9.19118 12.68L5.56107 14.9699L5.26744 14.4598C4.90177 13.8264 4.06198 13.602 3.4286 13.9676L0.667878 15.5604C0.0345038 15.9261 -0.189906 16.7659 0.175771 17.3993L4.28979 24.5234C4.65547 25.1567 5.49362 25.3828 6.12699 25.0171L8.88771 23.4227C9.52109 23.057 9.74714 22.2172 9.38146 21.5838L9.32729 21.4887L10.9004 20.4257L16.6876 21.5641C17.4807 21.7201 18.1896 21.4988 18.7544 20.9211C20.621 19.0119 22.49 17.1113 24.3858 15.2406C24.3875 15.2395 24.3891 15.2383 24.3908 15.2372C25.2031 14.425 25.2031 13.0788 24.3908 12.2665C23.9847 11.8604 23.4439 11.658 22.9046 11.658ZM22.9046 13.323C23.0093 13.323 23.1141 13.3668 23.2015 13.4542C23.3763 13.629 23.3763 13.8749 23.2015 14.0497C21.2954 15.9307 19.4209 17.8384 17.5537 19.7483C17.5195 19.7834 17.0602 19.925 17.0124 19.9156L10.8824 18.7116C10.7736 18.69 10.6617 18.6903 10.553 18.7122C10.4443 18.7342 10.3411 18.7775 10.2492 18.8395L8.48583 20.0321L6.40257 16.4249L10.0868 14.1022C10.5032 13.8396 11.009 13.7615 11.4844 13.8889L17.2995 15.4472C17.5382 15.5112 17.6604 15.7236 17.5964 15.9623C17.5324 16.2011 17.32 16.3232 17.0813 16.2592L13.4315 15.2816C13.2164 15.224 12.9872 15.2542 12.7943 15.3655C12.6014 15.4769 12.4607 15.6603 12.403 15.8754C12.3454 16.0905 12.3756 16.3197 12.4869 16.5126C12.5983 16.7055 12.7817 16.8462 12.9968 16.9039L16.6466 17.8815C17.4662 18.1011 18.3153 17.7902 18.8234 17.1663C18.9046 17.1292 18.9793 17.0794 19.0448 17.0187L22.6077 13.4542C22.6951 13.3668 22.7998 13.323 22.9046 13.323ZM3.97976 15.5883L4.38657 16.2937C4.40093 16.4128 4.44064 16.5275 4.50304 16.6299C4.55691 16.7116 4.62464 16.7832 4.70316 16.8416L7.75915 22.135L5.57747 23.3948L1.79809 16.8481L3.97976 15.5883Z" fill="black"/>
<path fill-rule="evenodd" clip-rule="evenodd" d="M15.833 6.71891C15.6103 6.71891 15.3966 6.80738 15.2391 6.96488C15.0816 7.12239 14.9931 7.33603 14.9931 7.55877C14.9931 7.78152 15.0816 7.99513 15.2391 8.15263C15.3966 8.31014 15.6103 8.39863 15.833 8.39863H17.5127C17.7355 8.39863 17.9491 8.31014 18.1066 8.15263C18.2641 7.99513 18.3526 7.78152 18.3526 7.55877C18.3526 7.33603 18.2641 7.12239 18.1066 6.96488C17.9491 6.80738 17.7355 6.71891 17.5127 6.71891H15.833Z" fill="black"/>
<path fill-rule="evenodd" clip-rule="evenodd" d="M15.833 3.35945C15.6103 3.35945 15.3966 3.44793 15.2391 3.60543C15.0816 3.76294 14.9931 3.97657 14.9931 4.19932C14.9931 4.42206 15.0816 4.63567 15.2391 4.79318C15.3966 4.95068 15.6103 5.03918 15.833 5.03918H17.5127C17.7355 5.03918 17.9491 4.95068 18.1066 4.79318C18.2641 4.63567 18.3526 4.42206 18.3526 4.19932C18.3526 3.97657 18.2641 3.76294 18.1066 3.60543C17.9491 3.44793 17.7355 3.35945 17.5127 3.35945H15.833Z" fill="black"/>
<path fill-rule="evenodd" clip-rule="evenodd" d="M16.6729 0C13.4359 0 10.7938 2.6421 10.7938 5.87904C10.7938 9.116 13.4359 11.7581 16.6729 11.7581C19.9098 11.7581 22.5519 9.116 22.5519 5.87904C22.5519 2.6421 19.9098 0 16.6729 0ZM16.6729 1.67973C19.002 1.67973 20.8722 3.54988 20.8722 5.87904C20.8722 8.20821 19.002 10.0784 16.6729 10.0784C14.3437 10.0784 12.4735 8.20821 12.4735 5.87904C12.4735 3.54988 14.3437 1.67973 16.6729 1.67973Z" fill="black"/>
</svg>
