<svg width="25" height="25" viewBox="0 0 25 25" fill="none" xmlns="http://www.w3.org/2000/svg">
<path d="M5.575 6.45L6.25 9.325L5.575 12.1875L8.0875 13.7375L9.625 16.25L12.5 15.575L15.375 16.25L16.9125 13.7375L19.425 12.1875L18.75 9.325L19.425 6.45L16.925 4.9L15.375 2.3875L12.5 3.075L9.6375 2.4L8.075 4.9L5.575 6.45ZM12.5125 14.375C9.7375 14.375 7.5 12.1375 7.5 9.3625C7.5 6.6125 9.7375 4.375 12.5125 4.375C15.2625 4.375 17.5 6.6125 17.5 9.3625C17.5 12.1375 15.2625 14.375 12.5125 14.375ZM12.4875 13.125C10.4125 13.125 8.75 11.45 8.75 9.375C8.75 7.3125 10.4125 5.625 12.4875 5.625C14.5625 5.625 16.25 7.3125 16.25 9.375C16.25 11.45 14.5625 13.125 12.4875 13.125ZM17.2875 14.5L15.6875 17.3L13.0875 16.7125L16.25 24L18 21.25H21.125L17.2875 14.5ZM7.6625 14.5875L9.225 17.4L11.8875 16.7625L8.75 24L7 21.25H3.875L7.6625 14.5875Z" fill="black"/>
</svg>
