<svg width="22" height="25" viewBox="0 0 22 25" fill="none" xmlns="http://www.w3.org/2000/svg">
<path d="M13.6558 0.0230079C12.0923 -0.159363 10.6088 0.757512 10.0727 2.23745C9.95193 2.57098 9.90948 2.93158 9.88962 3.30956C9.87469 3.59471 9.87099 3.93461 9.87025 4.33494L9.86988 4.89627C9.86988 4.90221 9.86988 4.90813 9.86988 4.91403V14.866C8.82158 13.8821 7.41131 13.2795 5.86024 13.2795C2.62372 13.2795 0 15.9032 0 19.1398C0 22.3763 2.62372 25 5.86024 25C9.09682 25 11.7205 22.3763 11.7205 19.1398V8.29595C11.8498 8.36488 11.9898 8.43484 12.1433 8.51146L15.4836 10.1816C15.9997 10.4396 16.4197 10.6496 16.7637 10.7996C17.1107 10.9508 17.4522 11.0742 17.8045 11.1153C19.3679 11.2976 20.8515 10.3807 21.3875 8.90085C21.5084 8.56733 21.5508 8.20672 21.5708 7.82874C21.5904 7.45389 21.5904 6.98441 21.5904 6.40746L21.5905 6.30527C21.5906 5.87624 21.5907 5.54062 21.5299 5.22256C21.3732 4.40384 20.9206 3.67147 20.2584 3.16517C20.0011 2.96848 19.7009 2.81853 19.3171 2.62683L15.9767 0.956711C15.4607 0.698675 15.0407 0.488693 14.6966 0.338696C14.3497 0.18744 14.0082 0.0641037 13.6558 0.0230079Z" fill="black"/>
</svg>
