<svg width="25" height="25" viewBox="0 0 25 25" fill="none" xmlns="http://www.w3.org/2000/svg">
<path d="M0 23C0 24.1046 0.89543 25 2 25H23C24.1046 25 25 24.1046 25 23V20.75C25 19.6454 24.1046 18.75 23 18.75H2C0.89543 18.75 0 19.6454 0 20.75V23ZM8.92857 21.875C8.92857 21.6284 9.12844 21.4286 9.375 21.4286H15.625C15.8716 21.4286 16.0714 21.6284 16.0714 21.875C16.0714 22.1216 15.8716 22.3214 15.625 22.3214H9.375C9.12844 22.3214 8.92857 22.1216 8.92857 21.875ZM15.3929 5.35714C14.2883 5.35714 13.3929 4.46171 13.3929 3.35714V2C13.3929 0.89543 12.4974 0 11.3929 0H2C0.895431 0 0 0.895431 0 2V15.8571C0 16.9617 0.89543 17.8571 2 17.8571H23C24.1046 17.8571 25 16.9617 25 15.8571V7.35714C25 6.25257 24.1046 5.35714 23 5.35714H15.3929ZM6.25 13.3929C6.25 13.886 5.85025 14.2857 5.35714 14.2857C4.86403 14.2857 4.46429 13.886 4.46429 13.3929C4.46429 12.8997 4.86403 12.5 5.35714 12.5C5.85025 12.5 6.25 12.8997 6.25 13.3929ZM6.25 9.82143C6.25 10.3145 5.85025 10.7143 5.35714 10.7143C4.86403 10.7143 4.46429 10.3145 4.46429 9.82143C4.46429 9.32832 4.86403 8.92857 5.35714 8.92857C5.85025 8.92857 6.25 9.32832 6.25 9.82143ZM9.82143 13.3929C9.82143 13.886 9.42168 14.2857 8.92857 14.2857C8.43546 14.2857 8.03572 13.886 8.03572 13.3929C8.03572 12.8997 8.43546 12.5 8.92857 12.5C9.42168 12.5 9.82143 12.8997 9.82143 13.3929ZM9.82143 9.82143C9.82143 10.3145 9.42168 10.7143 8.92857 10.7143C8.43546 10.7143 8.03572 10.3145 8.03572 9.82143C8.03572 9.32832 8.43546 8.92857 8.92857 8.92857C9.42168 8.92857 9.82143 9.32832 9.82143 9.82143ZM10.7143 4.01786C10.7143 4.75752 10.1147 5.35714 9.375 5.35714H4.01786C3.27819 5.35714 2.67857 4.75752 2.67857 4.01786C2.67857 3.27819 3.27819 2.67857 4.01786 2.67857H9.375C10.1147 2.67857 10.7143 3.27819 10.7143 4.01786ZM13.3929 13.3929C13.3929 13.886 12.9931 14.2857 12.5 14.2857C12.0069 14.2857 11.6071 13.886 11.6071 13.3929C11.6071 12.8997 12.0069 12.5 12.5 12.5C12.9931 12.5 13.3929 12.8997 13.3929 13.3929ZM13.3929 9.82143C13.3929 10.3145 12.9931 10.7143 12.5 10.7143C12.0069 10.7143 11.6071 10.3145 11.6071 9.82143C11.6071 9.32832 12.0069 8.92857 12.5 8.92857C12.9931 8.92857 13.3929 9.32832 13.3929 9.82143ZM16.9643 13.3929C16.9643 13.886 16.5645 14.2857 16.0714 14.2857C15.5783 14.2857 15.1786 13.886 15.1786 13.3929C15.1786 12.8997 15.5783 12.5 16.0714 12.5C16.5645 12.5 16.9643 12.8997 16.9643 13.3929ZM16.9643 9.82143C16.9643 10.3145 16.5645 10.7143 16.0714 10.7143C15.5783 10.7143 15.1786 10.3145 15.1786 9.82143C15.1786 9.32832 15.5783 8.92857 16.0714 8.92857C16.5645 8.92857 16.9643 9.32832 16.9643 9.82143ZM20.5357 13.3929C20.5357 13.886 20.136 14.2857 19.6429 14.2857C19.1497 14.2857 18.75 13.886 18.75 13.3929C18.75 12.8997 19.1497 12.5 19.6429 12.5C20.136 12.5 20.5357 12.8997 20.5357 13.3929ZM20.5357 9.82143C20.5357 10.3145 20.136 10.7143 19.6429 10.7143C19.1497 10.7143 18.75 10.3145 18.75 9.82143C18.75 9.32832 19.1497 8.92857 19.6429 8.92857C20.136 8.92857 20.5357 9.32832 20.5357 9.82143Z" fill="black"/>
</svg>
