<svg width="25" height="24" viewBox="0 0 25 24" fill="none" xmlns="http://www.w3.org/2000/svg">
<path d="M21.2908 3.84981L18.0357 5.00287C18.1735 5.38044 18.2551 5.77839 18.2551 6.19167C18.2551 8.07431 16.7296 9.62533 14.8214 9.62533C13.3112 9.62533 12.0255 8.63554 11.5663 7.2835L0 11.3294H25C25 8.58962 23.6531 6.0335 21.2908 3.84981ZM13.8316 3.9671C13 4.34464 12.4031 5.19669 12.4031 6.17119C12.4031 7.50281 13.4949 8.58956 14.8214 8.58956C16.148 8.58956 17.2398 7.49771 17.2398 6.17119C17.2398 4.84464 16.1684 3.75281 14.8214 3.75281C14.1888 1.84975 12.2398 0.20179 12.1429 0.120165C11.9235 -0.0583766 11.6071 -0.0379599 11.4286 0.181415C11.25 0.40079 11.2704 0.717123 11.4898 0.895686C12.0459 1.34977 13.352 2.66098 13.8316 3.9671ZM0 18.1764H25V23.0182H0V18.1764ZM0 12.3396H25V17.1815H0V12.3396Z" fill="black"/>
</svg>
