<svg width="23" height="25" viewBox="0 0 23 25" fill="none" xmlns="http://www.w3.org/2000/svg">
<path d="M4.15977 20.9436C4.15977 21.4912 4.60479 21.9374 5.15274 21.9374H11.9691C12.5166 21.9374 12.9624 21.4912 12.9624 20.9436V13.2124H4.15977V20.9436Z" fill="black"/>
<path d="M21.4707 10.5059C20.6844 9.71438 19.5865 9.2341 18.3916 9.23889C17.9446 9.2361 17.4863 9.30939 17.0293 9.4444C17.4234 8.83112 17.6557 8.10456 17.6557 7.31862C17.6557 5.82731 16.8334 4.53033 15.6181 3.85577C15.0049 1.62945 12.9676 0 10.5515 0C9.63737 0 8.77936 0.235108 8.034 0.643263C7.46198 0.286378 6.78263 0.0816896 6.05724 0.0816896C4.24952 0.0869142 2.73785 1.34829 2.36451 3.04381C0.980569 3.58536 0 4.93844 0 6.51666C0 7.55368 0.418995 8.4882 1.09317 9.16276V20.9448C1.09317 23.1871 2.91129 25 5.15362 25H11.9715C14.2086 25 16.0264 23.1871 16.0264 20.9448V19.1931C16.221 19.2135 16.4149 19.2235 16.614 19.2235C17.9014 19.2235 19.234 18.8402 20.3628 18.0543C20.9247 17.6657 21.4354 17.1706 21.8336 16.573C22.237 15.9754 22.5282 15.2708 22.666 14.4893C22.7121 14.2033 22.7376 13.9221 22.7376 13.6413C22.7376 12.4161 22.263 11.3022 21.4707 10.5059ZM14.4942 20.9448C14.4942 22.3344 13.3606 23.4679 11.9715 23.4679H5.15357C3.75924 23.4679 2.62525 22.3344 2.62525 20.9448V10.2299H14.4942V20.9448H14.4942ZM15.6898 8.69772H3.36065C2.90123 8.62116 2.49786 8.40173 2.18101 8.08483C1.77764 7.68146 1.53208 7.13473 1.53208 6.51666C1.53208 5.47477 2.25752 4.60157 3.22808 4.36646L3.76402 4.23907L3.81007 3.68712C3.90221 2.52833 4.87237 1.61387 6.05719 1.61387C6.61393 1.61387 7.11471 1.81289 7.50763 2.14497L7.95705 2.5231L8.43732 2.19102C9.03976 1.77203 9.75998 1.53208 10.5515 1.53208C12.3596 1.53208 13.8665 2.82427 14.2033 4.53028L14.285 4.92887L14.6528 5.08668C15.5212 5.45997 16.1236 6.31754 16.1236 7.31857C16.1236 7.83454 15.9654 8.30436 15.6898 8.69772ZM20.6487 14.1473C20.567 14.6424 20.388 15.0614 20.138 15.4339C19.7699 15.9854 19.2288 16.4248 18.6007 16.7261C17.9726 17.0273 17.2629 17.1859 16.6139 17.1807C16.4097 17.1807 16.2154 17.1707 16.0263 17.1403V12.3287C16.2462 12.1296 16.4609 11.9662 16.6704 11.8284C17.2981 11.4299 17.8753 11.2817 18.3916 11.2817C19.0505 11.2817 19.6121 11.532 20.0203 11.9458C20.4345 12.3595 20.6948 12.9367 20.6948 13.6413C20.6948 13.8052 20.6792 13.9735 20.6487 14.1473Z" fill="black"/>
</svg>
