<svg width="25" height="25" viewBox="0 0 25 25" fill="none" xmlns="http://www.w3.org/2000/svg">
<path d="M12.5 0C5.596 0 0 5.596 0 12.5C0 19.403 5.596 25 12.5 25C19.403 25 25 19.403 25 12.5C25 5.596 19.403 0 12.5 0ZM10.666 9.5C9.838 9.5 9.166 8.828 9.166 8C9.166 7.171 9.838 6.5 10.666 6.5C11.495 6.5 12.166 7.171 12.166 8C12.166 8.828 11.495 9.5 10.666 9.5ZM13.166 4.667C13.166 3.838 13.838 3.167 14.666 3.167C15.495 3.167 16.166 3.838 16.166 4.667C16.166 5.496 15.495 6.167 14.666 6.167C13.838 6.167 13.166 5.495 13.166 4.667ZM16 12C14.896 12 14 11.104 14 10C14 8.896 14.896 8 16 8C17.104 8 18 8.896 18 10C18 11.104 17.104 12 16 12Z" fill="black"/>
</svg>
