<svg width="25" height="22" viewBox="0 0 25 22" fill="none" xmlns="http://www.w3.org/2000/svg">
<path fill-rule="evenodd" clip-rule="evenodd" d="M21.6793 6.27431L15.5148 1.80386C15.2685 0.770172 14.3446 0 13.2341 0C12.0718 0 11.1134 0.842327 10.922 1.94974L4.54417 6.27431H0V21.8974H25V6.27431H21.6793ZM13.2341 4.70573C14.1062 4.70573 14.856 4.22732 15.2638 3.5246L18.6246 6.27431H7.8831L11.2812 3.6642C11.7047 4.29163 12.4216 4.70573 13.2341 4.70573ZM18.7282 15.8185L13.6445 18.4428L7.79885 11.0411L1.53564 20.3915V7.84289H23.4957V20.3915L18.7282 15.8185Z" fill="black"/>
<path d="M20.3005 12.4326C21.1348 12.4326 21.8111 11.7563 21.8111 10.922C21.8111 10.0878 21.1348 9.41147 20.3005 9.41147C19.4663 9.41147 18.79 10.0878 18.79 10.922C18.79 11.7563 19.4663 12.4326 20.3005 12.4326Z" fill="black"/>
</svg>
