<svg width="25" height="22" viewBox="0 0 25 22" fill="none" xmlns="http://www.w3.org/2000/svg">
<path d="M23.8341 5.34539C23.0568 4.56941 22.1254 4.18761 21.0275 4.18761C19.9296 4.18761 19.0042 4.53861 18.2393 5.33915H18.2146C17.4497 4.53861 16.5367 4.18761 15.4388 4.18761C14.3469 4.18761 13.4093 4.56941 12.6321 5.34539C11.8611 6.12137 11.4724 7.0574 11.4724 8.14733C11.4724 9.56985 11.8796 10.5059 12.4656 11.6514C13.508 13.4065 14.1866 14.4349 14.4889 14.7367L14.5629 14.8106C15.0749 15.2909 15.6301 15.5495 16.2408 15.5495C17.0797 15.5495 17.7335 15.1924 18.2208 14.5765H18.2455C18.7267 15.1924 19.3929 15.5495 20.2318 15.5495C20.8426 15.5495 21.4039 15.297 21.9097 14.8167L21.9837 14.7367C22.2922 14.4349 22.9645 13.4003 24.007 11.6514C24.5929 10.506 25 9.56995 25 8.14743C25 7.05126 24.6114 6.12137 23.8341 5.34539ZM23.4394 10.506C23.3715 10.6415 23.242 10.7153 23.1001 10.7153C23.0445 10.7153 22.9891 10.7031 22.9335 10.6784C22.7485 10.586 22.6683 10.3643 22.7608 10.1796C23.094 9.50844 23.2728 8.90489 23.2975 8.39375C23.3284 7.81486 23.1187 7.26063 22.6992 6.82337C22.2489 6.34916 21.6136 6.07819 20.9597 6.07819C20.75 6.07819 20.5834 5.9119 20.5834 5.70253C20.5834 5.49316 20.75 5.32687 20.9597 5.32687C21.8233 5.32687 22.6561 5.68401 23.2482 6.30598C23.8034 6.89101 24.0871 7.64847 24.0501 8.43059C24.0192 9.04038 23.8157 9.74238 23.4394 10.506ZM20.5155 3.38707C20.0529 3.71341 18.2331 4.85277 18.2331 4.85277L17.2647 0.942267L18.0727 0.369519L18.6032 2.69112C18.7266 1.33635 19.5655 0.683575 21.5888 0C21.8294 1.69973 21.6196 2.58039 20.5155 3.38707ZM21.92 16.943L16.1705 18.2583C16.1307 18.5373 16.0108 18.8363 15.8312 19.0755C15.4918 19.5937 14.9727 19.9723 14.3738 20.1318C13.7749 20.2713 13.1361 20.1716 12.6171 19.8129L7.66607 16.6639C7.42649 16.5243 7.38661 16.2453 7.52629 16.0262C7.66607 15.8069 7.94554 15.7472 8.14514 15.8866L13.1161 19.0356C13.7749 19.4342 14.6333 19.2549 15.0526 18.6171C15.4718 17.9792 15.2722 17.1023 14.6333 16.6838L8.44464 12.7775C7.42649 12.1397 6.24861 11.6415 5.13065 12.1995L0 15.1095L0.0199405 20.7696L3.67331 18.2384C4.25228 18.0989 4.89107 18.2185 5.43006 18.5573L9.74216 21.2679C10.8002 21.9256 12.0978 22.085 13.2159 21.786L22.5588 19.6535C23.2975 19.4941 23.7965 18.7567 23.6169 17.9594C23.4173 17.242 22.6787 16.7836 21.92 16.943Z" fill="black"/>
</svg>
