<svg width="22" height="25" viewBox="0 0 22 25" fill="none" xmlns="http://www.w3.org/2000/svg">
<path fill-rule="evenodd" clip-rule="evenodd" d="M20.5943 7.37488C19.076 13.8961 14.4446 15 8.22332 15L6.34767 25H9.78176C10.4074 25 10.6694 24.574 10.7848 23.974C11.6411 18.5602 11.5208 19.4461 11.5985 18.5986C11.6725 18.1261 12.0812 17.5 12.5614 17.5C17.1226 17.5 20.148 16.1815 21.072 11.4478C21.4005 9.764 21.2927 8.46488 20.5943 7.37488ZM6.41788 14.8248L5.01491 22.5H0.669323C0.258085 22.5 -0.0566165 21.9974 0.00857972 21.5924L3.25334 0.938721C3.3386 0.398721 3.80627 0 4.35543 0H12.1476C16.7615 0 19.8684 1.7515 19.15 6.31775C17.8924 14.4502 10.9214 13.75 7.74938 13.75C7.20023 13.75 6.50439 14.2848 6.41788 14.8248Z" fill="black"/>
</svg>
