<svg width="37" height="37" viewBox="0 0 37 37" fill="none" xmlns="http://www.w3.org/2000/svg">
<path d="M36.5 18.3892C36.5 28.2663 28.444 36.2784 18.5 36.2784C8.55604 36.2784 0.5 28.2663 0.5 18.3892C0.5 8.5121 8.55604 0.5 18.5 0.5C28.444 0.5 36.5 8.5121 36.5 18.3892Z" stroke="white"/>
<path d="M13 18.5504H22.2994M15.4299 15.7006L15.9998 13.6007C16.1198 13.1507 16.5698 12.9107 17.0198 13.0307L24.3993 15.0106C24.8493 15.1306 25.0893 15.5806 24.9693 16.0305L23.7693 20.5303M15.7598 14.4106L24.7593 16.8105M22.2994 17.7104V22.3602C22.2994 22.8101 21.9395 23.1701 21.4895 23.1701H13.81C13.36 23.1701 13 22.8101 13 22.3602V17.7104C13 17.2605 13.36 16.9005 13.81 16.9005H21.4895C21.9395 16.9005 22.2994 17.2605 22.2994 17.7104ZM19.1496 21.7002H20.9495C21.0395 21.7002 21.0995 21.7602 21.0995 21.8502C21.0995 21.9402 21.0395 22.0002 20.9495 22.0002H19.1496C19.0596 22.0002 18.9996 21.9402 18.9996 21.8502C18.9996 21.7602 19.0596 21.7002 19.1496 21.7002Z" stroke="white" stroke-miterlimit="10" stroke-linecap="round" stroke-linejoin="round"/>
</svg>
