<svg width="20" height="20" viewBox="0 0 20 20" fill="none" xmlns="http://www.w3.org/2000/svg">
<path d="M18.2066 4.29858C18.102 4.16358 17.9495 4.0739 17.7807 4.04804C17.6118 4.02218 17.4395 4.06212 17.2992 4.15962C17.159 4.25711 17.0615 4.40472 17.0269 4.572C16.9923 4.73927 17.0232 4.91344 17.1133 5.05858C17.8903 6.17496 18.3937 7.45855 18.5826 8.80552C18.7716 10.1525 18.6408 11.525 18.201 12.8121C17.7611 14.0992 17.0245 15.2647 16.0507 16.2143C15.0769 17.1639 13.8933 17.871 12.5956 18.2783C11.2979 18.6857 9.92246 18.7819 8.58066 18.5591C7.23886 18.3364 5.96833 17.8009 4.87184 16.9961C3.77534 16.1913 2.88367 15.1397 2.26895 13.9264C1.65423 12.713 1.33371 11.3721 1.33334 10.0119C1.34174 8.14705 1.94777 6.33402 3.06246 4.83896C4.17715 3.3439 5.74179 2.24558 7.52666 1.70525C7.61071 1.6803 7.68902 1.63904 7.75712 1.58382C7.82522 1.52861 7.88177 1.46052 7.92356 1.38345C7.96535 1.30637 7.99154 1.22183 8.00065 1.13463C8.00976 1.04743 8.00161 0.959294 7.97666 0.875248C7.95171 0.791203 7.91045 0.712894 7.85523 0.644794C7.80002 0.576694 7.73193 0.520137 7.65486 0.47835C7.57779 0.436564 7.49324 0.410367 7.40604 0.401256C7.31885 0.392145 7.23071 0.400298 7.14666 0.425249C5.36911 0.954444 3.77374 1.96755 2.53888 3.35133C1.30401 4.73511 0.478302 6.43504 0.154034 8.26113C-0.170233 10.0872 0.01972 11.9675 0.702663 13.6918C1.38561 15.4162 2.53463 16.9166 4.02131 18.0255C5.50799 19.1343 7.27374 19.8078 9.12122 19.9708C10.9687 20.1338 12.8251 19.7798 14.483 18.9484C16.1408 18.1169 17.5348 16.8408 18.509 15.2627C19.4833 13.6846 19.9995 11.8666 20 10.0119C20.0037 7.9684 19.3775 5.9734 18.2066 4.29858Z" fill="white"/>
<path d="M12.4733 1.70525C13.5126 2.0206 14.483 2.52953 15.3333 3.20525C15.402 3.25953 15.4808 3.29974 15.5651 3.32359C15.6493 3.34743 15.7375 3.35445 15.8244 3.34424C15.9114 3.33402 15.9955 3.30678 16.072 3.26405C16.1484 3.22133 16.2157 3.16397 16.27 3.09525C16.3243 3.02652 16.3645 2.94778 16.3883 2.86351C16.4122 2.77925 16.4192 2.69111 16.409 2.60413C16.3988 2.51715 16.3715 2.43304 16.3288 2.35659C16.2861 2.28014 16.2287 2.21286 16.16 2.15858C15.1693 1.37402 14.0379 0.785726 12.8267 0.425249C12.6569 0.374858 12.4741 0.393959 12.3185 0.47835C12.1628 0.562741 12.047 0.70551 11.9967 0.875248C11.9463 1.04499 11.9654 1.22779 12.0498 1.38345C12.1341 1.5391 12.2769 1.65486 12.4467 1.70525H12.4733ZM9.52666 1.15191C9.59146 1.2108 9.66587 1.25815 9.74666 1.29191C9.82646 1.32718 9.91275 1.3454 9.99999 1.3454C10.0872 1.3454 10.1735 1.32718 10.2533 1.29191C10.3341 1.25804 10.4084 1.2107 10.4733 1.15191C10.5351 1.08962 10.584 1.01574 10.6172 0.934519C10.6503 0.853295 10.6672 0.76632 10.6667 0.678582C10.6642 0.502071 10.5951 0.333005 10.4733 0.205249C10.3964 0.12498 10.3005 0.0652419 10.1946 0.0314746C10.0886 -0.00229282 9.97588 -0.00901645 9.86666 0.0119159C9.82492 0.019308 9.78449 0.0327848 9.74666 0.0519158C9.70411 0.0663581 9.66374 0.0865447 9.62666 0.111916L9.52666 0.191916C9.46597 0.255318 9.41839 0.330081 9.38666 0.411916C9.35075 0.496196 9.33259 0.586973 9.33333 0.678582C9.33438 0.7657 9.3525 0.851767 9.38666 0.931915C9.42054 1.01264 9.46788 1.08704 9.52666 1.15191ZM14.4733 5.53858C14.3484 5.41441 14.1794 5.34472 14.0033 5.34472C13.8272 5.34472 13.6582 5.41441 13.5333 5.53858L9.99999 9.07191L6.47333 5.53858C6.3458 5.42936 6.18175 5.37229 6.01396 5.37877C5.84618 5.38525 5.68702 5.45481 5.56829 5.57353C5.44956 5.69226 5.38 5.85142 5.37352 6.01921C5.36704 6.18699 5.42411 6.35104 5.53333 6.47858L9.05999 10.0119L5.52666 13.5386C5.45688 13.5983 5.4002 13.6719 5.36018 13.7546C5.32017 13.8373 5.29768 13.9274 5.29413 14.0192C5.29059 14.111 5.30606 14.2026 5.33957 14.2881C5.37309 14.3737 5.42393 14.4514 5.4889 14.5163C5.55387 14.5813 5.63157 14.6321 5.71712 14.6657C5.80267 14.6992 5.89422 14.7146 5.98603 14.7111C6.07785 14.7076 6.16793 14.6851 6.25064 14.6451C6.33335 14.605 6.4069 14.5484 6.46666 14.4786L9.99999 10.9519L13.5267 14.4786C13.6542 14.5878 13.8182 14.6449 13.986 14.6384C14.1538 14.6319 14.313 14.5623 14.4317 14.4436C14.5504 14.3249 14.62 14.1657 14.6265 13.9979C14.6329 13.8302 14.5759 13.6661 14.4667 13.5386L10.94 10.0119L14.4667 6.48524C14.5296 6.42371 14.5797 6.35032 14.6141 6.26932C14.6485 6.18832 14.6666 6.10131 14.6672 6.0133C14.6678 5.92529 14.651 5.83803 14.6177 5.75655C14.5845 5.67507 14.5354 5.60099 14.4733 5.53858Z" fill="white"/>
</svg>
