<svg width="10" height="10" viewBox="0 0 10 10" fill="none" xmlns="http://www.w3.org/2000/svg">
<path opacity="0.5" d="M5.91506 5.99068L4.03269 4.12282M5.91506 5.99068L3.56282 8.32475C3.25287 8.63234 2.87663 8.87516 2.44467 8.94908C2.00852 9.02375 1.46727 9.04859 1.20915 8.79246C0.951035 8.53633 0.976071 7.99923 1.05129 7.56645C1.12579 7.13782 1.37052 6.76448 1.68047 6.4569L4.03269 4.12282M5.91506 5.99068C5.91506 5.99068 7.32678 4.58979 6.3856 3.65586C5.44442 2.72193 4.03269 4.12282 4.03269 4.12282M1 4.96919C1 1.93393 1.94118 1 5 1C8.05882 1 9 1.93393 9 4.96919C9 8.00446 8.05882 8.93839 5 8.93839" stroke="white" stroke-linecap="round" stroke-linejoin="round"/>
</svg>
