<svg width="22" height="22" viewBox="0 0 22 22" fill="none" xmlns="http://www.w3.org/2000/svg">
<path d="M13.2876 13.4767L8.58172 8.80706M13.2876 13.4767L7.40706 19.3119C6.63218 20.0809 5.69158 20.6879 4.61168 20.8727C3.52131 21.0594 2.16816 21.1215 1.52287 20.4812C0.877588 19.8408 0.940176 18.4981 1.12824 17.4161C1.31448 16.3446 1.92629 15.4112 2.70118 14.6422L8.58172 8.80706M13.2876 13.4767C13.2876 13.4767 16.8169 9.97447 14.464 7.63965C12.1111 5.30483 8.58172 8.80706 8.58172 8.80706M1 10.923C1 3.33482 3.35294 1 11 1C18.6471 1 21 3.33482 21 10.923C21 18.5112 18.6471 20.846 11 20.846" stroke="white" stroke-linecap="round" stroke-linejoin="round"/>
</svg>
