<svg width="16" height="13" viewBox="0 0 16 13" fill="none" xmlns="http://www.w3.org/2000/svg">
<path d="M0 10.0455V7.31731L3.55555 4.13638L5.33332 5.90912L7.11106 0L10.6666 4.13638L13.037 1.77274L11.2592 0H15.9999V4.72728L14.2222 2.95458L10.6666 6.50002L7.70367 2.95458L5.9259 8.86366L3.55555 6.50002L0 10.0455Z" fill="white"/>
<path d="M16 13H14.2222V5.31811L16 7.09085V13ZM12.4445 13H10.6667V8.86359L12.4445 7.09088V13ZM8.88891 13H7.11113V9.45452L8.00002 5.90904L8.88891 7.09085V13ZM5.33336 13H3.55558V8.86359L5.33336 10.6363V13ZM1.77781 13H3.74348e-05V12.4091L1.77781 10.6364V13Z" fill="white"/>
</svg>
