<svg width="37" height="37" viewBox="0 0 37 37" fill="none" xmlns="http://www.w3.org/2000/svg">
<path d="M36.5 18.3892C36.5 28.2663 28.444 36.2784 18.5 36.2784C8.55604 36.2784 0.5 28.2663 0.5 18.3892C0.5 8.5121 8.55604 0.5 18.5 0.5C28.444 0.5 36.5 8.5121 36.5 18.3892Z" stroke="white"/>
<g clip-path="url(#clip0_3_461)">
<path fill-rule="evenodd" clip-rule="evenodd" d="M24.3796 16.7163C24.3469 16.7143 24.3112 16.7143 24.2742 16.7143H22.8142C21.6185 16.7143 20.5953 17.6629 20.5953 18.9C20.5953 20.1371 21.6185 21.0857 22.8142 21.0857H24.2742C24.3112 21.0857 24.3469 21.0857 24.3796 21.0836C24.8653 21.0527 25.2949 20.6697 25.331 20.1346C25.3334 20.0995 25.3333 20.0617 25.3333 20.0267V17.7733C25.3333 17.7383 25.3334 17.7005 25.331 17.6654C25.2949 17.1304 24.8653 16.7473 24.3796 16.7163ZM22.6857 19.4828C22.9935 19.4828 23.2431 19.2219 23.2431 18.9C23.2431 18.5781 22.9935 18.3172 22.6857 18.3172C22.3778 18.3172 22.1282 18.5781 22.1282 18.9C22.1282 19.2219 22.3778 19.4828 22.6857 19.4828Z" fill="white"/>
<path fill-rule="evenodd" clip-rule="evenodd" d="M24.2738 21.96C24.36 21.9578 24.4253 22.0382 24.4019 22.1219C24.2858 22.5372 24.1015 22.8911 23.8059 23.1891C23.3731 23.6253 22.8243 23.8189 22.1463 23.9107C21.4875 24 20.6457 24 19.5828 24H18.361C17.2982 24 16.4563 24 15.7975 23.9107C15.1195 23.8189 14.5707 23.6253 14.1379 23.1891C13.7051 22.7529 13.5131 22.1998 13.4219 21.5165C13.3333 20.8525 13.3333 20.0041 13.3333 18.9329V18.8671C13.3333 17.7959 13.3333 16.9475 13.4219 16.2835C13.5131 15.6002 13.7051 15.0471 14.1379 14.6109C14.5707 14.1747 15.1195 13.9811 15.7975 13.8893C16.4563 13.8 17.2981 13.8 18.361 13.8H19.5828C20.6457 13.8 21.4875 13.8 22.1463 13.8893C22.8243 13.9811 23.3731 14.1747 23.8059 14.6109C24.1015 14.9089 24.2858 15.2628 24.4019 15.6781C24.4253 15.7618 24.36 15.8423 24.2738 15.84L22.8142 15.84C21.1737 15.84 19.7278 17.1461 19.7278 18.9C19.7278 20.6539 21.1737 21.96 22.8142 21.96H24.2738ZM15.502 16.1314C15.2625 16.1314 15.0683 16.3271 15.0683 16.5686C15.0683 16.81 15.2625 17.0057 15.502 17.0057H17.8153C18.0548 17.0057 18.249 16.81 18.249 16.5686C18.249 16.3271 18.0548 16.1314 17.8153 16.1314H15.502Z" fill="white"/>
<path d="M16.7993 13.2146L17.9746 12.3488C18.6058 11.8837 19.4609 11.8837 20.092 12.3488L21.2735 13.2192C20.7795 13.2 20.2279 13.2 19.6231 13.2H18.3207C17.7681 13.2 17.2598 13.2 16.7993 13.2146Z" fill="white"/>
</g>
<defs>
<clipPath id="clip0_3_461">
<rect width="12" height="12" fill="white" transform="translate(13 12)"/>
</clipPath>
</defs>
</svg>
