<svg width="37" height="37" viewBox="0 0 37 37" fill="none" xmlns="http://www.w3.org/2000/svg">
<path d="M36.5 18.3892C36.5 28.2663 28.444 36.2784 18.5 36.2784C8.55604 36.2784 0.5 28.2663 0.5 18.3892C0.5 8.5121 8.55604 0.5 18.5 0.5C28.444 0.5 36.5 8.5121 36.5 18.3892Z" stroke="white"/>
<path fill-rule="evenodd" clip-rule="evenodd" d="M21.263 18.7236C21.034 18.7236 20.6143 18.6803 20.6143 18.6129V24.7419H21.9117V18.6129C21.9117 18.6803 21.492 18.7236 21.263 18.7236ZM21.9117 14.0197V12.7053H20.6143V14.0197C19.9656 14.2683 19.3169 14.9297 19.3169 15.7145C19.3169 16.7117 20.1881 17.52 21.263 17.52C22.3379 17.52 23.2091 16.7117 23.2091 15.7145C23.2091 14.9297 22.5604 14.2683 21.9117 14.0197ZM16.7221 18.8344V12.7053H15.4247V18.8344C15.6284 18.767 15.8444 18.7236 16.0734 18.7236C16.3024 18.7236 16.7221 18.767 16.7221 18.8344ZM18.0195 21.7328C18.0195 22.5175 17.3708 23.1789 16.7221 23.4275V24.7419H15.4247V23.4275C14.776 23.1789 14.1273 22.5175 14.1273 21.7328C14.1273 20.7355 14.9985 19.9273 16.0734 19.9273C17.1483 19.9273 18.0195 20.7355 18.0195 21.7328Z" fill="white"/>
</svg>
