<svg width="24" height="24" viewBox="0 0 24 24" fill="none" xmlns="http://www.w3.org/2000/svg">
<path d="M9 22H15C20 22 22 20 22 15V9C22 4 20 2 15 2H9C4 2 2 4 2 9V15C2 20 4 22 9 22Z" stroke="black" stroke-width="1.5" stroke-linecap="round" stroke-linejoin="round"/>
<path d="M16.28 13.6099C15.15 14.7399 13.53 15.0899 12.1 14.6399L9.51 17.2199C9.33 17.4099 8.96 17.5299 8.69 17.4899L7.49 17.3299C7.09 17.2799 6.73 16.8999 6.67 16.5099L6.51 15.3099C6.47 15.0499 6.6 14.6799 6.78 14.4899L9.36 11.9099C8.92 10.4799 9.26 8.85989 10.39 7.72989C12.01 6.10989 14.65 6.10989 16.28 7.72989C17.9 9.33989 17.9 11.9799 16.28 13.6099Z" stroke="black" stroke-width="1.5" stroke-miterlimit="10" stroke-linecap="round" stroke-linejoin="round"/>
<path d="M10.45 16.2799L9.60001 15.4199" stroke="black" stroke-width="1.5" stroke-miterlimit="10" stroke-linecap="round" stroke-linejoin="round"/>
<path d="M13.3945 10.7H13.4035" stroke="black" stroke-width="2" stroke-linecap="round" stroke-linejoin="round"/>
</svg>
