<svg width="37" height="37" viewBox="0 0 37 37" fill="none" xmlns="http://www.w3.org/2000/svg">
<path d="M36.5 18.3892C36.5 28.2663 28.444 36.2784 18.5 36.2784C8.55604 36.2784 0.5 28.2663 0.5 18.3892C0.5 8.5121 8.55604 0.5 18.5 0.5C28.444 0.5 36.5 8.5121 36.5 18.3892Z" stroke="white"/>
<path d="M20.6667 16.3333H20.6722M20.6667 19.6667C22.5076 19.6667 24 18.1743 24 16.3333C24 14.4924 22.5076 13 20.6667 13C18.8257 13 17.3333 14.4924 17.3333 16.3333C17.3333 16.4854 17.3435 16.635 17.3632 16.7817C17.3957 17.0229 17.4119 17.1435 17.401 17.2198C17.3896 17.2993 17.3751 17.3421 17.3359 17.4122C17.2983 17.4794 17.2321 17.5457 17.0995 17.6783L14.2604 20.5174C14.1643 20.6135 14.1162 20.6616 14.0819 20.7176C14.0514 20.7673 14.029 20.8215 14.0154 20.8782C14 20.9422 14 21.0101 14 21.1459V22.1111C14 22.4223 14 22.5778 14.0605 22.6967C14.1138 22.8012 14.1988 22.8862 14.3033 22.9394C14.4222 23 14.5777 23 14.8889 23H15.854C15.9899 23 16.0579 23 16.1218 22.9847C16.1785 22.9711 16.2327 22.9486 16.2824 22.9181C16.3384 22.8838 16.3865 22.8357 16.4826 22.7397L19.3217 19.9005C19.4543 19.7679 19.5206 19.7017 19.5878 19.6641C19.6579 19.6249 19.7007 19.6104 19.7802 19.5991C19.8565 19.5881 19.9771 19.6043 20.2183 19.6368C20.3649 19.6565 20.5146 19.6667 20.6667 19.6667Z" stroke="white" stroke-linecap="round" stroke-linejoin="round"/>
</svg>
